<?xml version="1.0" standalone="no"?>
<!DOCTYPE svg PUBLIC "-//W3C//DTD SVG 20010904//EN"
 "http://www.w3.org/TR/2001/REC-SVG-20010904/DTD/svg10.dtd">
<svg version="1.0" xmlns="http://www.w3.org/2000/svg"
 width="300.000000pt" height="375.000000pt" viewBox="0 0 300.000000 375.000000"
 preserveAspectRatio="xMidYMid meet">
<metadata>
Created by potrace 1.10, written by Peter Selinger 2001-2011
</metadata>
<g transform="translate(0.000000,375.000000) scale(0.100000,-0.100000)"
fill="#000000" stroke="none">
<path d="M680 2595 c-22 -40 -29 -46 -77 -56 -29 -7 -53 -14 -53 -17 0 -2 15
-23 33 -45 29 -37 32 -47 29 -94 -2 -29 -1 -53 2 -53 4 0 22 7 41 14 l35 15 0
-64 c0 -55 -3 -66 -21 -75 -11 -7 -29 -30 -40 -53 -17 -38 -19 -68 -19 -295
l0 -252 46 -85 46 -85 87 0 87 0 42 79 42 78 0 232 c0 224 -1 231 -20 231 -19
0 -20 -7 -20 -227 l0 -227 -32 -63 -33 -63 -66 0 -67 0 -36 69 -36 69 0 253
c0 235 2 256 20 283 l19 30 3 -258 3 -258 28 -24 c40 -34 88 -32 129 5 l33 29
3 213 c3 180 1 220 -14 257 -19 50 -62 82 -111 82 l-33 0 0 60 c0 33 3 60 8
60 4 -1 18 -7 32 -15 42 -24 47 -19 42 43 -4 55 -2 58 32 91 40 39 44 51 19
51 -53 0 -92 22 -120 65 -15 25 -30 45 -33 45 -3 0 -16 -20 -30 -45z m53 -55
c12 -20 26 -30 42 -30 33 0 38 -14 15 -35 -13 -12 -20 -31 -20 -57 l0 -39 -30
16 c-27 14 -33 14 -61 0 l-31 -16 3 35 c3 25 -3 42 -19 59 -25 26 -20 37 15
37 16 0 30 10 41 30 9 16 19 30 22 30 3 0 14 -13 23 -30z m87 -365 c25 -25 25
-26 28 -241 3 -242 -1 -264 -58 -264 -59 0 -60 6 -60 287 l0 256 33 -7 c17 -4
43 -18 57 -31z"/>
<path d="M1214 2268 c-27 -66 -50 -125 -52 -129 -2 -5 5 -9 16 -9 13 0 24 10
31 30 9 27 14 30 54 30 40 0 46 -3 57 -30 8 -18 20 -30 31 -30 11 0 19 2 19 4
0 4 -101 250 -104 253 -1 2 -25 -52 -52 -119z m76 -39 c0 -5 -11 -9 -25 -9
-28 0 -29 4 -14 50 l12 32 13 -32 c8 -18 14 -36 14 -41z"/>
<path d="M1704 2268 c-27 -66 -50 -125 -52 -129 -2 -5 5 -9 16 -9 13 0 24 10
31 30 9 27 14 30 55 30 40 0 45 -3 55 -30 7 -21 17 -30 32 -30 13 0 19 5 16
13 -26 65 -100 243 -101 244 -1 2 -25 -52 -52 -119z m76 -39 c0 -5 -11 -9 -25
-9 -28 0 -29 4 -14 50 l12 32 13 -32 c8 -18 14 -36 14 -41z"/>
<path d="M1897 2263 c1 -107 4 -129 17 -131 14 -3 16 10 16 80 l1 83 79 -83
80 -83 0 125 c0 122 -1 126 -21 126 -21 0 -22 -3 -16 -82 l6 -83 -82 88 -82
88 2 -128z"/>
<path d="M920 2254 c0 -122 1 -125 21 -122 20 3 21 9 23 126 1 120 1 122 -21
122 -23 0 -23 -2 -23 -126z"/>
<path d="M1010 2359 c0 -18 5 -21 30 -17 l30 5 0 -109 c0 -101 1 -108 20 -108
19 0 20 7 20 105 l0 105 35 0 c28 0 35 4 35 20 0 18 -7 20 -85 20 -80 0 -85
-1 -85 -21z"/>
<path d="M1407 2258 l2 -123 61 -3 c55 -3 60 -1 60 18 0 17 -6 20 -42 20 l-43
0 3 105 c3 104 3 105 -20 105 -23 0 -23 -1 -21 -122z"/>
<path d="M1570 2255 c0 -118 1 -125 20 -125 19 0 20 7 20 125 0 118 -1 125
-20 125 -19 0 -20 -7 -20 -125z"/>
<path d="M2198 2364 c-36 -19 -58 -63 -58 -113 0 -105 139 -160 214 -84 82 81
29 214 -85 213 -24 -1 -56 -7 -71 -16z m130 -46 c31 -30 30 -91 -3 -123 -52
-53 -145 -16 -145 57 0 85 86 123 148 66z"/>
<path d="M1104 2025 c-4 -11 -26 -67 -50 -125 -24 -57 -44 -108 -44 -112 0 -5
8 -8 18 -8 10 0 22 12 29 30 10 27 15 30 56 30 41 0 46 -3 56 -30 7 -20 17
-30 30 -30 24 0 25 4 9 33 -6 12 -31 69 -54 127 -33 80 -45 100 -50 85z m35
-147 c1 -5 -12 -8 -29 -8 -35 0 -34 -3 -14 46 l17 39 13 -35 c7 -19 13 -38 13
-42z"/>
<path d="M2129 2030 c-68 -19 -99 -60 -99 -130 0 -32 7 -48 34 -78 32 -34 38
-37 91 -37 53 0 59 3 91 37 27 30 34 46 34 78 0 48 -22 95 -51 111 -37 19 -73
26 -100 19z m89 -66 c30 -35 30 -87 -3 -119 -52 -53 -145 -16 -145 57 0 87 91
125 148 62z"/>
<path d="M1250 1905 l0 -125 65 4 c98 6 148 48 148 126 0 78 -55 120 -158 120
l-55 0 0 -125z m148 62 c15 -14 22 -32 22 -58 0 -53 -26 -80 -83 -86 l-47 -6
0 89 0 90 43 -4 c24 -3 51 -13 65 -25z"/>
<path d="M1510 1907 l0 -123 65 -2 c59 -2 65 0 65 18 0 17 -7 20 -45 20 l-45
0 0 51 0 51 35 -6 c31 -6 35 -4 35 14 0 16 -6 20 -35 20 -31 0 -35 3 -35 26 0
24 2 25 45 18 41 -6 45 -5 45 15 0 19 -6 21 -65 21 l-65 0 0 -123z"/>
<path d="M1696 2015 c-40 -41 -28 -81 36 -117 33 -18 43 -29 43 -48 0 -20 -6
-26 -28 -28 -16 -2 -36 3 -46 12 -19 18 -31 12 -31 -14 0 -19 39 -40 76 -40
31 0 74 42 74 73 0 30 -16 49 -67 81 -47 29 -51 37 -27 57 13 11 21 11 45 -3
27 -16 28 -16 35 4 4 13 1 24 -7 29 -22 14 -86 10 -103 -6z"/>
<path d="M1877 2018 c-9 -7 -19 -25 -22 -40 -8 -30 16 -60 74 -90 24 -13 32
-24 29 -40 -4 -29 -52 -37 -77 -14 -19 18 -31 12 -31 -14 0 -19 39 -40 76 -40
31 0 74 42 74 73 0 30 -16 49 -67 81 -47 29 -51 37 -27 57 13 11 21 11 45 -3
27 -16 28 -16 35 4 4 13 1 24 -7 29 -21 13 -83 11 -102 -3z"/>
<path d="M2020 1607 l0 -85 -77 -7 c-178 -14 -335 -37 -441 -66 -62 -16 -122
-27 -132 -24 -24 8 -26 28 -4 46 27 22 44 65 31 78 -27 27 -94 4 -261 -92 -84
-49 -126 -61 -246 -73 l-75 -7 25 21 25 21 -74 1 -74 0 39 -35 c44 -39 42 -39
172 -24 106 11 153 29 307 117 50 30 102 52 118 52 l28 0 -30 -37 c-17 -21
-31 -45 -31 -55 0 -41 75 -49 179 -18 99 29 228 49 399 62 l152 12 0 55 0 56
27 -38 c24 -34 43 -47 43 -29 0 4 12 21 26 37 l25 30 -4 -57 c-3 -51 -1 -58
15 -58 16 0 18 10 18 100 0 55 -2 100 -3 100 -2 0 -21 -25 -42 -55 -20 -30
-41 -55 -46 -55 -4 0 -26 25 -48 57 l-41 56 0 -86z"/>
<path d="M2314 1654 c-19 -19 -34 -38 -34 -42 0 -4 15 -32 33 -62 22 -37 41
-56 56 -58 21 -3 20 1 -19 58 l-42 62 31 32 c17 18 31 35 31 39 0 17 -25 4
-56 -29z"/>
<path d="M2240 1585 c0 -84 2 -95 18 -95 15 0 17 11 17 95 0 84 -2 95 -17 95
-16 0 -18 -11 -18 -95z"/>
</g>
</svg>
